<svg width="64" height="64" viewBox="0 0 64 64" xmlns="http://www.w3.org/2000/svg">
  <defs>
    <!-- Exact gradient: from-indigo-500 to-purple-600 -->
    <linearGradient id="gradient" x1="0%" y1="0%" x2="100%" y2="100%">
      <stop offset="0%" style="stop-color:#6366f1"/>
      <stop offset="100%" style="stop-color:#9333ea"/>
    </linearGradient>
  </defs>
  
  <!-- Background container (p-2 equivalent = 8px padding, rounded-2xl = 16px) -->
  <rect x="4" y="4" width="56" height="56" rx="16" fill="url(#gradient)"/>
  
  <!-- Brain icon (much bigger now) -->
  <g transform="translate(32, 32)" fill="none" stroke="white" stroke-width="2" stroke-linecap="round" stroke-linejoin="round">
    <g transform="scale(1.4) translate(-12, -12)">
      <path d="M12 5a3 3 0 1 0-5.997.125 4 4 0 0 0-2.526 5.77 4 4 0 0 0 .556 6.588A4 4 0 1 0 12 18Z"/>
      <path d="M12 5a3 3 0 1 1 5.997.125 4 4 0 0 1 2.526 5.77 4 4 0 0 1-.556 6.588A4 4 0 1 1 12 18Z"/>
      <path d="M15 13a4.5 4.5 0 0 1-3-4 4.5 4.5 0 0 1-3 4"/>
      <path d="M17.599 6.5a3 3 0 0 0 .399-1.375"/>
      <path d="M6.003 5.125A3 3 0 0 0 6.401 6.5"/>
      <path d="M3.477 10.896a4 4 0 0 1 .585-.396"/>
      <path d="M19.938 10.5a4 4 0 0 1 .585.396"/>
      <path d="M6 18a4 4 0 0 1-1.967-.516"/>
      <path d="M19.967 17.484A4 4 0 0 1 18 18"/>
    </g>
  </g>
</svg>
